 <svg xmlns="http://www.w3.org/2000/svg" class="side-icon" viewBox="0 0 420.03 419.997">
                <g id="log" transform="translate(-6937.806 -1730)">
                  <path id="Path_135" data-name="Path 135" d="M240.36,398.21V420a34.992,34.992,0,0,0,35,35H424.63a34.992,34.992,0,0,0,35-35V274.049L424.1,309.487a17.479,17.479,0,0,1-24.762-24.676l65.449-65.363a17.271,17.271,0,0,1,24.676,0l65.363,65.363a17.449,17.449,0,0,1-24.676,24.676l-35.523-35.438V420a69.979,69.979,0,0,1-70,70H275.352a69.979,69.979,0,0,1-70-70V398.21a17.5,17.5,0,0,1,35,0Z" transform="translate(6797.829 1659.998)"/>
                  <path id="Path_136" data-name="Path 136" d="M300.65,275.19l-65.363,65.363a17.373,17.373,0,0,1-24.762,0L145.162,275.19a17.449,17.449,0,0,1,24.676-24.676l35.523,35.438,0-145.95a69.979,69.979,0,0,1,70-70h149.27a69.979,69.979,0,0,1,70,70v21.789a17.5,17.5,0,1,1-35,0V140a34.992,34.992,0,0,0-35-35H275.365a34.992,34.992,0,0,0-35,35v145.95l35.523-35.438A17.479,17.479,0,0,1,300.65,275.19Z" transform="translate(6797.829 1659.998)"/>
                </g>
              </svg>