<svg xmlns="http://www.w3.org/2000/svg" class="side-icon" viewBox="0 0 25.107 21.986">
        <g id="reminder" transform="translate(-563.59 -88)">
            <path id="Path_112" data-name="Path 112" d="M332.71,152.32h-1.748v7.195l4.136,3.379,1.107-1.369-3.5-2.825Z" transform="translate(244.063 -59.956)"/>
            <path id="Path_113" data-name="Path 113" d="M132.023,68.77a4.166,4.166,0,0,0-2.913,1.194,10.777,10.777,0,0,0-11.1,0,4.165,4.165,0,1,0-4.952,6.67,10.778,10.778,0,0,0,2.825,10.224l-1.893,2.5,1.4,1.049,1.835-2.418a10.748,10.748,0,0,0,12.612,0l1.864,2.418,1.4-1.049-1.893-2.5a10.778,10.778,0,0,0,2.825-10.224,4.165,4.165,0,0,0-2.01-7.835Zm-19.37,4.194a2.418,2.418,0,0,1,3.9-1.923,10.836,10.836,0,0,0-2.913,3.874,2.447,2.447,0,0,1-.99-1.952Zm10.894,15.321a9.058,9.058,0,1,1,6.4-2.643,9.058,9.058,0,0,1-6.4,2.643Zm9.9-13.34a10.834,10.834,0,0,0-2.913-3.9,2.435,2.435,0,1,1,2.913,3.9Z" transform="translate(452.469 19.574)"/>
        </g>
        </svg>