<svg xmlns="http://www.w3.org/2000/svg" width="15.069" height="15.068" viewBox="0 0 15.069 15.068">
  <path id="pencil" d="M16.144,4.118c-.833-.858-1.666-1.74-2.548-2.573a.732.732,0,0,0-.515-.245.791.791,0,0,0-.515.2L3.012,11a1.507,1.507,0,0,0-.294.466l-1.4,4.263a.55.55,0,0,0,.049.441.476.476,0,0,0,.417.2H1.86l4.312-1.446a1.069,1.069,0,0,0,.466-.294l9.506-9.506a.705.705,0,0,0,.221-.515A.9.9,0,0,0,16.144,4.118Zm-10.119,9.9a.208.208,0,0,1-.123.074L2.35,15.29l1.176-3.528a.536.536,0,0,1,.074-.123l7.081-7.056,2.4,2.4Zm7.669-7.669-2.4-2.4,1.764-1.74c.809.784,1.617,1.617,2.377,2.4Z" transform="translate(-1.296 -1.3)" fill="#773784"/>
</svg>
