<svg xmlns="http://www.w3.org/2000/svg" xmlns:xlink="http://www.w3.org/1999/xlink" viewBox="0 0 441.3 111.5"><defs><style>.cls-1{fill:#262652;}.cls-2{fill:url(#Degradado_sin_nombre_152);}.cls-3{fill:url(#Degradado_sin_nombre_152-2);}</style><linearGradient id="Degradado_sin_nombre_152" x1="2.57" y1="108.47" x2="104.78" y2="13.6" gradientUnits="userSpaceOnUse"><stop offset="0" stop-color="#773784"/><stop offset="1" stop-color="#8ba2d3"/></linearGradient><linearGradient id="Degradado_sin_nombre_152-2" x1="1.04" y1="106.83" x2="103.25" y2="11.96" gradientTransform="translate(14.09 -11.68) rotate(13.28)" xlink:href="#Degradado_sin_nombre_152"/></defs><g id="Layer_2" data-name="Layer 2"><g id="Capa_1" data-name="Capa 1"><path class="cls-1" d="M190.34,39.77A70.21,70.21,0,0,0,180.83,37c-2.8-.69-5-1.31-6.66-1.85a11.36,11.36,0,0,1-4-2.18,4.47,4.47,0,0,1-1.52-3.49,5.78,5.78,0,0,1,2.69-4.95c1.81-1.25,4.63-1.89,8.37-1.89a26.67,26.67,0,0,1,7.14,1,29.89,29.89,0,0,1,7.07,3l.2.12,3.18-7.85-.13-.09a26.25,26.25,0,0,0-8-3.44,37.71,37.71,0,0,0-9.39-1.19,28.86,28.86,0,0,0-11.61,2.09A16.06,16.06,0,0,0,161.09,22a14.12,14.12,0,0,0-2.37,7.93,12.13,12.13,0,0,0,2.68,8.25,16.14,16.14,0,0,0,6.38,4.46,78.34,78.34,0,0,0,9.62,2.83c2.8.68,5,1.3,6.66,1.84a11.12,11.12,0,0,1,4,2.22A4.56,4.56,0,0,1,189.55,53a5.45,5.45,0,0,1-2.76,4.72c-1.86,1.21-4.73,1.82-8.53,1.82A28.3,28.3,0,0,1,169,58a26.15,26.15,0,0,1-7.77-4.08l-.2-.16-3.5,7.85.12.1a24.39,24.39,0,0,0,8.92,4.56A39.93,39.93,0,0,0,178.26,68a29.17,29.17,0,0,0,11.65-2.09,16.09,16.09,0,0,0,7.16-5.63,13.92,13.92,0,0,0,2.37-7.89,11.89,11.89,0,0,0-2.68-8.14A16.55,16.55,0,0,0,190.34,39.77Z"/><path class="cls-1" d="M236.28,15h-9.74l-23.4,52-.13.28h10.37l5.11-12h25.69l5.13,11.88.05.12h10.52L236.33,15.08Zm4.54,32.32h-18.9l9.42-22Z"/><polygon class="cls-1" points="258.56 23.51 275.76 23.51 275.76 67.24 285.79 67.24 285.79 23.51 302.99 23.51 302.99 14.96 258.56 14.96 258.56 23.51"/><path class="cls-1" d="M349.8,17.69a31.61,31.61,0,0,0-28.8,0,25.94,25.94,0,0,0-10.08,9.63,26.59,26.59,0,0,0-3.66,13.78,26.57,26.57,0,0,0,3.66,13.78A25.8,25.8,0,0,0,321,64.51a31.61,31.61,0,0,0,28.8,0,25.85,25.85,0,0,0,10.08-9.59,26.56,26.56,0,0,0,3.66-13.82,26.49,26.49,0,0,0-3.66-13.81A25.87,25.87,0,0,0,349.8,17.69Zm-5.16,39.14h0a19.64,19.64,0,0,1-18.48,0,16.8,16.8,0,0,1-6.45-6.45,18.65,18.65,0,0,1-2.34-9.28,18.65,18.65,0,0,1,2.34-9.28,16.84,16.84,0,0,1,6.45-6.44,19.64,19.64,0,0,1,18.48,0,16.7,16.7,0,0,1,6.45,6.44,18.58,18.58,0,0,1,2.35,9.28,18.55,18.55,0,0,1-2.35,9.28A16.66,16.66,0,0,1,344.64,56.83Z"/><path class="cls-1" d="M416.17,43.81a17.84,17.84,0,0,0,2.89-10.19,18.13,18.13,0,0,0-2.7-10,17.3,17.3,0,0,0-7.76-6.45A29,29,0,0,0,396.77,15H375.23V67.24h10V52.12h11.51c.82,0,1.46,0,1.91-.06l10.53,15.1.06.08h10.86l-12-17.15A17.16,17.16,0,0,0,416.17,43.81Zm-30.91-20.3h11.07c4.13,0,7.31.88,9.44,2.62A9.18,9.18,0,0,1,409,33.62a9.23,9.23,0,0,1-3.19,7.51c-2.12,1.77-5.3,2.66-9.43,2.66H385.26Z"/><rect class="cls-1" x="431.26" y="14.96" width="10.03" height="52.28"/><path class="cls-1" d="M171,79a11.78,11.78,0,0,0-5.28-1.15h-8.19V96.52h8.19A11.65,11.65,0,0,0,171,95.36a8.65,8.65,0,0,0,3.61-3.29,10,10,0,0,0,0-9.78A8.65,8.65,0,0,0,171,79Zm-9.67,2.12h4.23a7.59,7.59,0,0,1,3.45.75A5.33,5.33,0,0,1,171.31,84a6.88,6.88,0,0,1,0,6.4A5.35,5.35,0,0,1,169,92.5a7.53,7.53,0,0,1-3.45.75h-4.23Z"/><polygon class="cls-1" points="193.36 88.63 202.18 88.63 202.18 85.44 193.36 85.44 193.36 81.09 203.3 81.09 203.3 77.85 189.56 77.85 189.56 96.52 203.67 96.52 203.67 93.27 193.36 93.27 193.36 88.63"/><path class="cls-1" d="M223.2,77.85l-8.27,18.39-.13.28h3.94l1.8-4.23h8.87l1.83,4.23h4L226.8,77.85Zm4.92,11.38h-6.26L225,81.94Z"/><polygon class="cls-1" points="251.28 77.85 247.48 77.85 247.48 96.52 260.83 96.52 260.83 93.25 251.28 93.25 251.28 77.85"/><polygon class="cls-1" points="293.93 77.85 290.82 77.85 283.81 89.77 276.72 77.94 276.66 77.85 273.56 77.85 273.56 96.52 277.19 96.52 277.19 85.07 282.89 94.43 284.63 94.43 290.32 84.92 290.34 96.52 293.95 96.52 293.93 78.05 293.93 77.85"/><path class="cls-1" d="M314.64,77.85l-8.28,18.39-.13.28h3.94l1.8-4.23h8.88l1.82,4.23h4l-8.43-18.67Zm4.91,11.38h-6.26l3.12-7.29Z"/><path class="cls-1" d="M350.85,78.65a10.35,10.35,0,0,0-4.22-.8h-7.71V96.52h3.79V91.24h3.92a10.35,10.35,0,0,0,4.22-.8,6.14,6.14,0,0,0,2.79-2.33,7.05,7.05,0,0,0,0-7.14A6.17,6.17,0,0,0,350.85,78.65Zm-8.14,2.47h3.77a5.09,5.09,0,0,1,3.24.89,3.54,3.54,0,0,1,0,5.07,5.09,5.09,0,0,1-3.24.9h-3.77Z"/><path class="cls-1" d="M380,78.65a10.35,10.35,0,0,0-4.22-.8h-7.71V96.52h3.79V91.24h3.92a10.35,10.35,0,0,0,4.22-.8,6.14,6.14,0,0,0,2.79-2.33,7.05,7.05,0,0,0,0-7.14A6.17,6.17,0,0,0,380,78.65Zm-8.14,2.47h3.77a5.09,5.09,0,0,1,3.24.89,3.54,3.54,0,0,1,0,5.07,5.09,5.09,0,0,1-3.24.9h-3.77Z"/><polygon class="cls-1" points="400.97 88.63 409.79 88.63 409.79 85.44 400.97 85.44 400.97 81.09 410.91 81.09 410.91 77.85 397.18 77.85 397.18 96.52 411.28 96.52 411.28 93.27 400.97 93.27 400.97 88.63"/><path class="cls-1" d="M437,90.41a6.21,6.21,0,0,0,2.74-2.2,6.4,6.4,0,0,0,1-3.66,6.52,6.52,0,0,0-1-3.58A6.22,6.22,0,0,0,437,78.65a10.35,10.35,0,0,0-4.22-.8h-7.71V96.52h3.79V91.19h4.53l3.67,5.25.06.09h4.14Zm-8.12-9.29h3.77a5.09,5.09,0,0,1,3.24.89,3.55,3.55,0,0,1,0,5.08,5,5,0,0,1-3.24.91H428.9Z"/><path class="cls-2" d="M118.75,0H51.57A45.81,45.81,0,0,0,5.75,45.82V74.66H39.24L0,111.5H67.18A45.82,45.82,0,0,0,113,65.68V36.84H79.51ZM85,53.16a26.86,26.86,0,0,1-5,15.63h0L57.93,104,39.43,74.48h0l-3.56-5.69h0A27,27,0,1,1,85,53.16Z"/><circle class="cls-3" cx="57.22" cy="54.68" r="8.97" transform="translate(-11.03 14.61) rotate(-13.28)"/></g></g></svg>