<svg xmlns="http://www.w3.org/2000/svg" class="side-icon" viewBox="0 0 65.004 65.005">
                <path id="dashboard" d="M147.012,70.958a15.09,15.09,0,1,0,15.09,15.09A15.1,15.1,0,0,0,147.012,70.958Zm-19.734,6.964a6.967,6.967,0,0,0-6.964-6.964H104.062A6.967,6.967,0,0,0,97.1,77.922V94.173a6.967,6.967,0,0,0,6.964,6.964h16.251a6.966,6.966,0,0,0,6.964-6.964Zm-4.643,0V94.173a2.323,2.323,0,0,1-2.321,2.321H104.062a2.322,2.322,0,0,1-2.321-2.321V77.922a2.322,2.322,0,0,1,2.321-2.321h16.251a2.323,2.323,0,0,1,2.321,2.321ZM147.012,75.6a10.447,10.447,0,1,1-10.447,10.447A10.451,10.451,0,0,1,147.012,75.6ZM127.278,43.1a6.967,6.967,0,0,0-6.964-6.965H104.063A6.967,6.967,0,0,0,97.1,43.1V59.35a6.967,6.967,0,0,0,6.964,6.965h16.251a6.967,6.967,0,0,0,6.964-6.965Zm34.824,0a6.967,6.967,0,0,0-6.964-6.965H138.887a6.967,6.967,0,0,0-6.964,6.965V59.35a6.967,6.967,0,0,0,6.964,6.965h16.251A6.967,6.967,0,0,0,162.1,59.35Zm-39.468,0V59.35a2.322,2.322,0,0,1-2.321,2.322H104.062a2.322,2.322,0,0,1-2.321-2.322V43.1a2.322,2.322,0,0,1,2.321-2.322h16.251a2.322,2.322,0,0,1,2.321,2.322Zm34.824,0V59.35a2.323,2.323,0,0,1-2.321,2.322H138.887a2.322,2.322,0,0,1-2.321-2.322V43.1a2.322,2.322,0,0,1,2.321-2.322h16.251a2.323,2.323,0,0,1,2.321,2.322Z" transform="translate(-97.098 -36.134)" fill-rule="evenodd"/>
              </svg>