<svg xmlns="http://www.w3.org/2000/svg" width="19.535" height="21.118" viewBox="0 0 19.535 21.118">
  <path id="add-user" d="M115.2,26.039a4.774,4.774,0,0,0,4.752-4.752,4.785,4.785,0,1,0-4.752,4.752Zm0-8.249a3.432,3.432,0,1,1-3.432,3.432A3.45,3.45,0,0,1,115.2,17.79Zm10.559,14.189a5.6,5.6,0,0,0-5.61-5.61,6.854,6.854,0,0,0-2.31.462,7.18,7.18,0,0,0-2.64-.462c-4.95,0-8.909,4.752-8.975,10.559v.66h17.819v-.66a4.056,4.056,0,0,0-.066-.924,5.444,5.444,0,0,0,1.782-4.026Zm-1.32,0a4.29,4.29,0,1,1-4.29-4.29A4.281,4.281,0,0,1,124.444,31.979Zm-16.829,4.29c.264-4.817,3.564-8.579,7.589-8.579a7.283,7.283,0,0,1,1.188.132,5.685,5.685,0,0,0-1.848,4.158,5.744,5.744,0,0,0,1.98,4.29Zm11.813-3.63H117.58v-1.32h1.848V29.471h1.32v1.848H122.6v1.32h-1.848v1.848h-1.32Z" transform="translate(-106.229 -16.47)"/>
</svg>
