<svg xmlns="http://www.w3.org/2000/svg" width="548.22" height="508.172" viewBox="0 0 548.22 508.172">
  <path id="agreement" d="M211.51,122.33a7.615,7.615,0,0,1,7.629-7.617h175.19a7.617,7.617,0,0,1,0,15.234H219.139a7.615,7.615,0,0,1-7.629-7.617Zm7.609,101.39h265.16a7.617,7.617,0,0,0,0-15.234H219.139a7.617,7.617,0,0,0,0,15.234Zm.02-46.875h265.14a7.617,7.617,0,0,0,0-15.234H219.139a7.617,7.617,0,0,0,0,15.234Zm0,93.727h265.14a7.617,7.617,0,0,0,0-15.234H219.139a7.617,7.617,0,1,0,0,15.234Zm402.95-110.91-18.668,32.332,11.555,23.469h0a7.605,7.605,0,0,1-1.715,9l-15.215,13.816L580.171,269.24a7.616,7.616,0,1,1-13.191-7.617l18.473-31.992v0a7.686,7.686,0,0,1,1.473-1.836l11.832-10.758-4.519-9.18L540.879,300.33V493.68a7.609,7.609,0,0,1-7.617,7.613H387.812l-244.29,32.734a7.284,7.284,0,0,1-1.008.07,7.616,7.616,0,0,1-7.551-6.6l-59-439.88A7.616,7.616,0,0,1,82.5,79.054L162.55,68.32V33.543a7.615,7.615,0,0,1,7.617-7.617h282.57a7.632,7.632,0,0,1,5.391,2.23l80.5,80.492a7.629,7.629,0,0,1,2.227,5.387v76.207l33.547-58.1a15.534,15.534,0,0,1,9.484-7.172,14.807,14.807,0,0,1,11.234,1.18L616.9,138.723a14.785,14.785,0,0,1,6.652,9.133,15.5,15.5,0,0,1-1.469,11.8Zm-157.37,232.22-12.742-7.344-.68,15.855ZM566.769,225l-21.3-12.3-90.148,156.16,21.293,12.289Zm7.617-13.188,13.754-23.777-21.3-12.3L553.12,199.513Zm-114.04-105.4h54.527L460.346,51.867Zm-187.09,394.84H170.1a7.61,7.61,0,0,1-7.562-7.617V83.7l-70.477,9.43,56.973,424.78Zm252.39-174.56-39.66,68.668a7.6,7.6,0,0,1-2.512,2.617l-17.957,11.426A7.6,7.6,0,0,1,460,422.253H404.65a7.614,7.614,0,1,1,0-15.223h31.137l1.52-35.672a7.665,7.665,0,0,1,1.016-3.484l2.039-3.535H219.121a7.615,7.615,0,1,1,0-15.23h230.03l18.273-31.645h-248.3a7.615,7.615,0,1,1,0-15.23h257.1l49.43-85.617V121.639H452.728a7.609,7.609,0,0,1-7.609-7.609V41.119H177.729v444.91h347.92Zm83.238-174.65a2.149,2.149,0,0,0-.094-.387l-20.816-12.02a1.17,1.17,0,0,0-.441.191l-13.121,22.73,21.3,12.3Z" transform="translate(-75.899 -25.926)"/>
</svg>
