<svg xmlns="http://www.w3.org/2000/svg" width="530.672" height="490.841" viewBox="0 0 530.672 490.841">
  <path id="data-management" d="M337.42,153.61H226.8a8.289,8.289,0,1,1,0-16.578H337.41a8.289,8.289,0,0,1,0,16.578ZM615.34,304.83v35.035a8.3,8.3,0,0,1-6.984,8.191l-32.516,5.2a102.854,102.854,0,0,1-6.965,16.8l19.312,26.676a8.293,8.293,0,0,1-.852,10.727l-24.773,24.773a8.288,8.288,0,0,1-10.727.852l-26.684-19.312a102.765,102.765,0,0,1-16.793,6.965l-5.2,32.516a8.3,8.3,0,0,1-4.055,5.875v23.531a42.813,42.813,0,0,1-42.766,42.766l-328.9,0a42.813,42.813,0,0,1-42.766-42.766l0-265.66a42.813,42.813,0,0,1,42.766-42.766h37.945l0-87.926a8.289,8.289,0,0,1,8.289-8.289H208.81V42.877a8.289,8.289,0,0,1,8.289-8.289h218.17a8.3,8.3,0,0,1,5.863,2.426l42.18,42.18a8.28,8.28,0,0,1,2.426,5.863v99.41h9.223a8.3,8.3,0,0,1,8.191,6.984l5.2,32.516a102.084,102.084,0,0,1,16.793,6.965l26.684-19.312a8.288,8.288,0,0,1,10.727.852l24.773,24.773a8.288,8.288,0,0,1,.852,10.727l-19.32,26.676a102.764,102.764,0,0,1,6.965,16.793l32.516,5.2a8.3,8.3,0,0,1,7,8.188ZM443.57,76.76h13.871L443.57,62.889ZM225.4,78.014H391.84A8.3,8.3,0,0,1,397.7,80.44l42.18,42.18a8.28,8.28,0,0,1,2.426,5.863v96.9c1.4-.508,2.813-.984,4.23-1.434l5.2-32.516a8.292,8.292,0,0,1,8.191-6.984h9.223V93.334H435.266a8.289,8.289,0,0,1-8.289-8.289V51.154l-201.58,0Zm174.74,42.18h13.871L400.14,106.323ZM181.97,174.221h46.371a46.793,46.793,0,0,1,26.938,8.215h125.61a8.289,8.289,0,1,1,0,16.578H270.049l16.664,28.828h90.234l15.387-15.387a8.288,8.288,0,0,1,10.727-.852l22.664,16.41,0-91.234H391.838a8.289,8.289,0,0,1-8.289-8.289V94.6l-201.58,0Zm114.34,70.211,14.984,25.91h71.633l-16.2-22.383a8.258,8.258,0,0,1-1.465-3.527ZM101.25,216.994v53.352H292.13l-37.07-64.121a29.8,29.8,0,0,0-26.727-15.418h-100.9a26.217,26.217,0,0,0-26.184,26.188Zm381.27,265.65v-22.43H459.938a8.3,8.3,0,0,1-8.191-6.984l-5.2-32.516a102.765,102.765,0,0,1-16.793-6.965l-26.684,19.312a8.288,8.288,0,0,1-10.727-.852l-24.773-24.773a8.288,8.288,0,0,1-.852-10.727l19.32-26.684a102.765,102.765,0,0,1-6.965-16.793l-32.516-5.2a8.3,8.3,0,0,1-6.984-8.191V304.8a8.3,8.3,0,0,1,6.984-8.191l32.516-5.2c.477-1.516.992-3.016,1.535-4.508l-74.1.008H101.243v195.73a26.212,26.212,0,0,0,26.18,26.18h328.9a26.209,26.209,0,0,0,26.191-26.18Zm116.23-170.75L568,306.972a8.285,8.285,0,0,1-6.719-6.129,86.216,86.216,0,0,0-9.352-22.559,8.293,8.293,0,0,1,.414-9.094l18.27-25.234-14.777-14.777-25.234,18.27a8.292,8.292,0,0,1-9.094.414,85.963,85.963,0,0,0-22.559-9.355,8.293,8.293,0,0,1-6.137-6.719L487.9,201.043H467l-4.922,30.746a8.289,8.289,0,0,1-6.137,6.719,86.008,86.008,0,0,0-22.559,9.352,8.293,8.293,0,0,1-9.094-.414l-25.23-18.266-14.777,14.777,18.27,25.234a8.292,8.292,0,0,1,.414,9.094,85.844,85.844,0,0,0-9.352,22.559,8.274,8.274,0,0,1-6.719,6.129l-30.746,4.922v20.895l30.746,4.922a8.285,8.285,0,0,1,6.719,6.129,86.219,86.219,0,0,0,9.352,22.559,8.293,8.293,0,0,1-.414,9.094l-18.27,25.234L399.059,415.5l25.234-18.27a8.293,8.293,0,0,1,9.094-.414,85.854,85.854,0,0,0,22.559,9.355,8.274,8.274,0,0,1,6.129,6.719L467,443.64h20.895l4.922-30.746a8.291,8.291,0,0,1,6.129-6.719A85.875,85.875,0,0,0,521.5,396.82a8.293,8.293,0,0,1,9.094.414l25.234,18.27,14.777-14.777-18.27-25.234a8.292,8.292,0,0,1-.414-9.094,85.856,85.856,0,0,0,9.356-22.559A8.274,8.274,0,0,1,568,337.711l30.746-4.922Zm-61.242,10.445a60.055,60.055,0,1,1-60.055-60.055A60.12,60.12,0,0,1,537.508,322.339Zm-16.586,0a43.469,43.469,0,1,0-43.469,43.469A43.518,43.518,0,0,0,520.922,322.339Z" transform="translate(-84.668 -34.588)"/>
</svg>
