<svg xmlns="http://www.w3.org/2000/svg" class="side-icon" viewBox="0 0 22.565 24.079">
                <g id="add-doc" transform="translate(-636.315 -173.493)">
                  <path id="Path_107" data-name="Path 107" d="M190.509,144.3h5.828a.558.558,0,0,0,0-1.116h-5.828a.558.558,0,0,0,0,1.116Z" transform="translate(449.698 35.527)"/>
                  <path id="Path_107_-_Outline" data-name="Path 107 - Outline" d="M196.337,144.453h-5.828a.708.708,0,0,1,0-1.415h5.828a.708.708,0,0,1,0,1.415Zm-5.828-1.115a.408.408,0,0,0,0,.815h5.828a.408.408,0,0,0,0-.815Z" transform="translate(449.698 35.527)" fill=""/>
                  <path id="Path_108" data-name="Path 108" d="M190.509,222.707h5.828a.558.558,0,0,0,0-1.115h-5.828a.558.558,0,1,0,0,1.115Z" transform="translate(449.698 -38.973)"/>
                  <path id="Path_108_-_Outline" data-name="Path 108 - Outline" d="M196.337,222.857h-5.828a.708.708,0,1,1,0-1.415h5.828a.708.708,0,0,1,0,1.415Zm-5.828-1.115a.408.408,0,0,0,0,.815h5.828a.408.408,0,0,0,0-.815Z" transform="translate(449.698 -38.973)" fill=""/>
                  <path id="Path_109" data-name="Path 109" d="M196.337,299.99h-5.828a.558.558,0,1,0,0,1.115h5.828a.558.558,0,0,0,0-1.115Z" transform="translate(449.698 -113.467)"/>
                  <path id="Path_109_-_Outline" data-name="Path 109 - Outline" d="M190.509,299.84h5.828a.708.708,0,0,1,0,1.415h-5.828a.708.708,0,1,1,0-1.415Zm5.828,1.115a.408.408,0,0,0,0-.815h-5.828a.408.408,0,1,0,0,.815Z" transform="translate(449.698 -113.467)" fill=""/>
                  <path id="Path_110" data-name="Path 110" d="M143.843,53.151l-.039-6.475h0a.344.344,0,0,0-.05-.245l-.017-.028a.561.561,0,0,0-.092-.114l-5.162-4.824h-.014a.554.554,0,0,0-.1-.073l-.025-.014a.561.561,0,0,0-.137-.045h-8.862A3.346,3.346,0,0,0,126,44.679v14.5a3.346,3.346,0,0,0,3.346,3.346h7.836a6.1,6.1,0,1,0,6.664-9.375Zm-5.184-10,3.179,2.967h-2.621a.558.558,0,0,1-.558-.558Zm-9.317,18.237a2.231,2.231,0,0,1-2.231-2.231V44.66a2.231,2.231,0,0,1,2.231-2.231h8.2v3.134a1.673,1.673,0,0,0,1.673,1.673H142.7l.028,5.7c-.179-.017-.36-.025-.541-.025a6.1,6.1,0,0,0-5.616,8.477Zm12.827,2.616a5.057,5.057,0,1,1,.022,0Z" transform="translate(510.469 132.31)"/>
                  <path id="Path_110_-_Outline" data-name="Path 110 - Outline" d="M129.342,41.183h8.876l.014,0a.711.711,0,0,1,.173.056l.034.019a.694.694,0,0,1,.083.054h.02l5.205,4.865a.713.713,0,0,1,.118.146l.02.034a.712.712,0,0,1,.064.163l0,.022a.715.715,0,0,1,0,.142l.038,6.354a6.248,6.248,0,0,1-1.828,12.223h-.014a6.259,6.259,0,0,1-5.05-2.586h-7.759a3.5,3.5,0,0,1-3.5-3.5v-14.5a3.5,3.5,0,0,1,3.5-3.5Zm8.847.3h-8.847a3.2,3.2,0,0,0-3.2,3.2v14.5a3.2,3.2,0,0,0,3.2,3.2h7.914l.045.064a5.958,5.958,0,0,0,4.85,2.523h.013A5.948,5.948,0,0,0,143.8,53.3l-.378-.108.269-.13-.039-6.48a.409.409,0,0,0-.03-.072l-.015-.025a.409.409,0,0,0-.067-.083l-5.117-4.783h-.012l-.043-.038a.405.405,0,0,0-.075-.053l-.022-.012A.411.411,0,0,0,138.189,41.483Zm-8.847.8h8.351v3.284a1.523,1.523,0,0,0,1.523,1.523h3.632l.029,6.017-.165-.015c-.173-.016-.35-.024-.527-.024a5.951,5.951,0,0,0-5.478,8.269l.088.208h-7.455a2.381,2.381,0,0,1-2.381-2.381V44.66a2.381,2.381,0,0,1,2.381-2.381Zm8.051.3h-8.051a2.081,2.081,0,0,0-2.081,2.081v14.5a2.081,2.081,0,0,0,2.081,2.081h7.006a6.251,6.251,0,0,1,5.838-8.477c.13,0,.261,0,.39.013l-.026-5.39h-3.334a1.823,1.823,0,0,1-1.823-1.823Zm1.115.23,3.709,3.462h-3a.708.708,0,0,1-.708-.708Zm2.948,3.162L138.809,43.5v2.064a.408.408,0,0,0,.408.408Zm.746,7.914h.011a5.136,5.136,0,0,1-.017,10.272h-.028a5.136,5.136,0,0,1,.033-10.272Zm-.006,9.972a4.836,4.836,0,0,0,.016-9.672H142.2a4.836,4.836,0,0,0-.033,9.672Z" transform="translate(510.469 132.31)" fill=""/>
                  <path id="Path_111" data-name="Path 111" d="M391.042,333.139h-2.186v-2.178a.558.558,0,1,0-1.116,0v2.183h-2.183a.558.558,0,0,0,0,1.115h2.186v2.186h0a.558.558,0,1,0,1.115,0v-2.192h2.186a.558.558,0,1,0,0-1.115Z" transform="translate(264.363 -142.366)"/>
                  <path id="Path_111_-_Outline" data-name="Path 111 - Outline" d="M388.3,330.253a.709.709,0,0,1,.708.708v2.028h2.036a.708.708,0,1,1,0,1.415h-2.036v2.042a.708.708,0,0,1-1.412.072l0,0V334.41h-2.036a.708.708,0,0,1,0-1.415h2.033v-2.033A.709.709,0,0,1,388.3,330.253Zm.558,3.036h-.15v-2.328a.408.408,0,1,0-.816,0v2.333h-2.333a.408.408,0,1,0,0,.815h2.336v2.336a.408.408,0,0,0,.815,0V334.1h2.336a.408.408,0,1,0,0-.815Z" transform="translate(264.363 -142.366)" fill=""/>
                </g>
              </svg>