<svg xmlns="http://www.w3.org/2000/svg" width="431.34" height="548.21" viewBox="0 0 431.34 548.21">
  <path id="document" d="M561.91,107.36l-97.7-97.7a12.865,12.865,0,0,0-9.09-3.762H177.181a42.9,42.9,0,0,0-42.855,42.855v462.5a42.9,42.9,0,0,0,42.855,42.855h345.63a42.9,42.9,0,0,0,42.855-42.855v-394.8a12.868,12.868,0,0,0-3.762-9.09ZM522.816,528.41H177.186a17.178,17.178,0,0,1-17.16-17.16V48.75a17.178,17.178,0,0,1,17.16-17.16h265.09V86.41a42.9,42.9,0,0,0,42.855,42.855h54.82v381.98a17.185,17.185,0,0,1-17.136,17.164ZM498.648,160.14A12.85,12.85,0,0,1,485.8,172.991H214.186a12.851,12.851,0,1,1,0-25.7h271.63a12.85,12.85,0,0,1,12.848,12.844Zm0,74.5v0A12.853,12.853,0,0,1,485.8,247.484H214.186a12.851,12.851,0,1,1,0-25.7h271.63a12.851,12.851,0,0,1,12.848,12.852Zm0,74.492v0A12.85,12.85,0,0,1,485.8,321.979H214.186a12.849,12.849,0,1,1,0-25.691h271.63a12.847,12.847,0,0,1,12.848,12.844Zm0,74.5v0A12.853,12.853,0,0,1,485.8,396.472H214.186a12.851,12.851,0,1,1,0-25.7h271.63a12.851,12.851,0,0,1,12.848,12.852Zm0,74.492v0A12.857,12.857,0,0,1,485.8,470.971H214.186a12.851,12.851,0,1,1,0-25.7h271.63a12.85,12.85,0,0,1,12.848,12.844Z" transform="translate(-134.326 -5.899)"/>
</svg>
