<svg xmlns="http://www.w3.org/2000/svg" width="12.071" height="15.424" viewBox="0 0 12.071 15.424">
  <path id="icons8-trash-can" d="M11.694,2a1.011,1.011,0,0,0-1.006,1.006v.671H8.058a.3.3,0,0,0-.105,0H7.335a.335.335,0,1,0,0,.671h.335V16.418a1.011,1.011,0,0,0,1.006,1.006h8.718A1.011,1.011,0,0,0,18.4,16.418V4.347h.335a.335.335,0,1,0,0-.671h-.614a.335.335,0,0,0-.109,0H15.383V3.006A1.011,1.011,0,0,0,14.377,2Zm0,.671h2.682a.334.334,0,0,1,.335.335v.671H11.359V3.006A.334.334,0,0,1,11.694,2.671ZM8.341,4.347h2.626a.335.335,0,0,0,.109,0h3.914a.335.335,0,0,0,.109,0H17.73V16.418a.334.334,0,0,1-.335.335H8.676a.334.334,0,0,1-.335-.335Zm2.677,1.672a.335.335,0,0,0-.33.34v8.383a.335.335,0,1,0,.671,0V6.359a.335.335,0,0,0-.341-.34Zm2.012,0a.335.335,0,0,0-.33.34v8.383a.335.335,0,1,0,.671,0V6.359a.335.335,0,0,0-.341-.34Zm2.012,0a.335.335,0,0,0-.33.34v8.383a.335.335,0,1,0,.671,0V6.359a.335.335,0,0,0-.341-.34Z" transform="translate(-7 -2)" fill="#773784"/>
</svg>
