<?xml version="1.0" encoding="UTF-8"?>
<svg id="Layer_2" data-name="Layer 2" xmlns="http://www.w3.org/2000/svg" viewBox="0 0 76.41 90.03">
  <defs>
    <style>
      .cls-1 {
        fill-rule: evenodd;
      }
    </style>
  </defs>
  <g id="Layer_1-2" data-name="Layer 1">
    <path class="cls-1" d="m54.81,20.76c-9.38-8.65-23.83-8.65-33.21,0-4.32,3.98-6.8,9.57-6.84,15.45v17.78c0,5.49-3.92,9.43-7.6,13.13-.72.72-1.42,1.43-2.11,2.17-.86.88-1.1,2.2-.59,3.32.19.41.45.78.79,1.09.7.63,1.62.97,2.57.95h60.79c.94.02,1.85-.31,2.55-.93.34-.31.61-.68.79-1.1.51-1.12.29-2.43-.56-3.32-.58-.64-1.34-1.41-2.11-2.2-3.67-3.74-7.62-7.77-7.62-13.22v-17.67c-.04-5.88-2.52-11.47-6.84-15.45h0Zm-26.14,58.08c1.64,5.26,7.24,8.2,12.51,6.55,3.13-.98,5.58-3.43,6.55-6.55h-19.06ZM43.76,10.61c.03-.26.05-.53.05-.79,0-3.09-2.51-5.6-5.6-5.6s-5.6,2.51-5.6,5.6c0,.27.02.53.05.79,3.67-.71,7.43-.71,11.1,0h0Zm-15.15,1.1c-1.06-5.3,2.37-10.46,7.68-11.52,5.3-1.06,10.46,2.37,11.52,7.68.25,1.27.25,2.58,0,3.85,3.67,1.29,7.03,3.33,9.87,5.99,5.17,4.77,8.13,11.46,8.17,18.49v17.67c0,3.76,3.32,7.15,6.41,10.29.72.74,1.44,1.46,2.21,2.31,1.24,1.32,1.94,3.07,1.95,4.88,0,1.03-.22,2.04-.65,2.97-.42.93-1.03,1.77-1.79,2.46-1.47,1.33-3.38,2.06-5.37,2.04h-16.55c-1.65,7.65-9.18,12.52-16.83,10.87-5.44-1.17-9.7-5.42-10.87-10.87H7.81c-2,.02-3.94-.72-5.42-2.08-.74-.69-1.34-1.52-1.75-2.45-.42-.93-.63-1.93-.64-2.95,0-1.84.72-3.6,1.99-4.93.68-.73,1.44-1.49,2.2-2.26,3.09-3.1,6.38-6.4,6.38-10.18v-17.78c.04-7.03,3-13.73,8.16-18.49,2.84-2.66,6.2-4.7,9.87-5.99Z"/>
  </g>
</svg>