<svg xmlns="http://www.w3.org/2000/svg" xmlns:xlink="http://www.w3.org/1999/xlink" viewBox="0 0 437.1 124.06"><defs><style>.cls-1{fill:url(#Degradado_sin_nombre_26);}</style><linearGradient id="Degradado_sin_nombre_26" x1="46.64" y1="151.02" x2="46.64" y2="22.52" gradientUnits="userSpaceOnUse"><stop offset="0" stop-color="#1d71b8"/><stop offset="1" stop-color="#77c3e4"/></linearGradient></defs><g id="Layer_2" data-name="Layer 2"><g id="Capa_1" data-name="Capa 1"><path class="cls-1" d="M46.64,30.78a46.68,46.68,0,0,0-9.37.94A37.78,37.78,0,0,0,0,0V77.42A46.64,46.64,0,1,0,46.64,30.78ZM67.26,98.05a28.92,28.92,0,0,0-13.07-7.53,34.42,34.42,0,0,0-7.55,21.55,34.46,34.46,0,0,0-7.55-21.55A28.89,28.89,0,0,0,26,98,29,29,0,0,0,33.54,85,34.5,34.5,0,0,0,12,77.42a34.49,34.49,0,0,0,21.55-7.54A29,29,0,0,0,26,56.79a29,29,0,0,0,13.08,7.53,34.5,34.5,0,0,0,7.55-21.55,34.49,34.49,0,0,0,7.54,21.55,29,29,0,0,0,13.08-7.53,29,29,0,0,0-7.52,13.08,34.44,34.44,0,0,0,21.55,7.55A34.5,34.5,0,0,0,59.74,85,29.07,29.07,0,0,0,67.26,98.05Z"/><path d="M176.68,61.42a13.45,13.45,0,0,0,4.76-4.72,14.3,14.3,0,0,0,2-7.49,12.78,12.78,0,0,0-5.47-10.9c-3.6-2.6-8.78-3.92-15.41-3.92H136.07V90.81h28.05c7.15,0,12.68-1.35,16.44-4a13.26,13.26,0,0,0,5.71-11.46,14.48,14.48,0,0,0-2.77-9A14.92,14.92,0,0,0,176.68,61.42ZM169.56,56c-1.87,1.26-4.62,1.9-8.15,1.9H147.06V43.15h14.35c3.53,0,6.28.63,8.15,1.89a6.16,6.16,0,0,1,2.77,5.52A6.07,6.07,0,0,1,169.56,56Zm-22.5,10.58h16.42c7.89,0,11.72,2.53,11.72,7.73s-3.83,7.74-11.72,7.74H147.06Z"/><path d="M246.6,37.34a34,34,0,0,0-31.06,0,27.77,27.77,0,0,0-10.88,10.4,28.67,28.67,0,0,0-3.95,14.86,28.67,28.67,0,0,0,3.95,14.86,27.84,27.84,0,0,0,10.88,10.4,34,34,0,0,0,31.06,0,28,28,0,0,0,10.88-10.35,28.67,28.67,0,0,0,3.95-14.91,28.67,28.67,0,0,0-3.95-14.91A27.86,27.86,0,0,0,246.6,37.34ZM241,79.42a21,21,0,0,1-19.78,0,18,18,0,0,1-6.89-6.89,20.9,20.9,0,0,1,0-19.86,17.82,17.82,0,0,1,6.89-6.89,21,21,0,0,1,19.78,0,17.82,17.82,0,0,1,6.89,6.89,20.9,20.9,0,0,1,0,19.86A18,18,0,0,1,241,79.42Z"/><path d="M320.48,37.89a35.52,35.52,0,0,0-16-3.5H279.77V90.81h24.71a35.52,35.52,0,0,0,16-3.5,26.17,26.17,0,0,0,10.89-9.92,28.24,28.24,0,0,0,3.87-14.79,28.24,28.24,0,0,0-3.87-14.79A26.17,26.17,0,0,0,320.48,37.89Zm-29.72,5.89H304a23.5,23.5,0,0,1,10.66,2.32,16.63,16.63,0,0,1,7,6.57,19.59,19.59,0,0,1,2.47,9.93,19.52,19.52,0,0,1-2.47,9.92,16.59,16.59,0,0,1-7,6.58A23.5,23.5,0,0,1,304,81.42H290.76Z"/><polygon points="392.79 57.42 364.57 57.42 364.57 34.39 353.58 34.39 353.58 90.81 364.57 90.81 364.57 66.9 392.79 66.9 392.79 90.81 403.78 90.81 403.78 34.39 392.79 34.39 392.79 57.42"/><rect x="426.11" y="34.39" width="10.99" height="56.42"/></g></g></svg>