<?xml version="1.0" encoding="UTF-8"?>
<svg id="Layer_2" data-name="Layer 2" xmlns="http://www.w3.org/2000/svg" viewBox="0 0 39.47 61.17">
  <defs>
    <style>
      .cls-1 {
        fill-rule: evenodd;
      }
    </style>
  </defs>
  <g id="Layer_1-2" data-name="Layer 1">
    <path class="cls-1" d="m31.72,6.83c-5.47-5.48-14.35-5.48-19.82-.01-5.48,5.47-5.48,14.35-.01,19.82,5.47,5.48,14.35,5.48,19.82.01,2.63-2.63,4.11-6.19,4.11-9.91,0-3.72-1.47-7.28-4.1-9.91ZM21.81,0c9.25,0,16.74,7.5,16.74,16.75,0,9.25-7.5,16.74-16.75,16.74-9.25,0-16.74-7.5-16.74-16.75,0-4.44,1.77-8.7,4.91-11.84C13.1,1.76,17.36,0,21.81,0Zm1.36,26.56c.02.75-.57,1.38-1.33,1.4s-1.38-.57-1.4-1.33c0-.02,0-.05,0-.07v-.81c-2.31-.62-3.91-2.71-3.91-5.1-.02-.75.57-1.38,1.33-1.4s1.38.57,1.4,1.33c0,.02,0,.05,0,.07,0,1.32,1.01,2.42,2.33,2.54.14-.02.29-.02.43,0,1.32-.11,2.33-1.21,2.33-2.54,0-.61-.24-1.19-.67-1.61-.55-.52-1.25-.85-1.99-.94-.04,0-.07,0-.11-.01-1.35-.2-2.62-.8-3.61-1.74-.94-.92-1.45-2.19-1.43-3.51,0-2.39,1.6-4.48,3.91-5.1v-.81c-.02-.75.57-1.38,1.33-1.4s1.38.57,1.4,1.33c0,.02,0,.05,0,.07v.81c2.31.62,3.91,2.71,3.91,5.1-.02.75-.65,1.35-1.4,1.33-.72-.02-1.31-.6-1.33-1.33,0-1.32-1.01-2.42-2.33-2.54-.14.02-.29.02-.43,0-1.32.11-2.33,1.22-2.33,2.54-.01.59.22,1.16.63,1.58.6.54,1.35.88,2.14.99h.03c1.33.18,2.57.78,3.54,1.71.95.93,1.48,2.21,1.47,3.54,0,2.39-1.6,4.48-3.91,5.1,0,0,0,.81,0,.81Zm9.95,16.89h3.05c.31,0,.57-.26.57-.57v-3.62c0-.31-.26-.57-.57-.57H6.35c-.31,0-.57.26-.57.57v3.62c0,.31.26.57.57.57h26.77Zm-26.78,7.49h26.78c.31,0,.56-.26.56-.57v-3.62c0-.31-.26-.57-.57-.57H3.3c-.31,0-.57.26-.57.57v3.62c0,.32.26.57.57.57h3.04Zm29.83,10.22H6.35c-1.82,0-3.3-1.48-3.3-3.3h0v-3.62c0-.19.02-.39.05-.58-1.74-.11-3.1-1.55-3.1-3.29v-3.62c0-1.74,1.36-3.18,3.1-3.29-.03-.19-.05-.38-.05-.58v-3.62c0-1.82,1.48-3.3,3.3-3.3h29.82c1.82,0,3.3,1.48,3.3,3.3v3.62c0,1.74-1.36,3.18-3.1,3.29.03.19.05.38.05.58v3.62c0,.19-.02.39-.05.58,1.74.11,3.1,1.55,3.1,3.29v3.63c0,1.82-1.48,3.3-3.3,3.3h0Zm-29.82-2.73h29.82c.31,0,.57-.26.57-.57v-3.62c0-.32-.26-.57-.57-.58H6.34c-.31,0-.56.26-.57.57v3.63c0,.31.26.57.57.57h0Z"/>
  </g>
</svg>