<svg xmlns="http://www.w3.org/2000/svg" class="side-icon" viewBox="0 0 392 504">
<path id="Path_137" data-name="Path 137" d="M238,532H462c47.6,0,84-36.4,84-84V280c0-36.4-22.4-67.2-56-78.4V168c0-78.4-61.6-140-140-140S210,89.6,210,168v33.6c-33.6,11.2-56,42-56,78.4V448C154,495.6,190.4,532,238,532ZM350,84c47.6,0,84,36.4,84,84v28H266V168C266,120.4,302.4,84,350,84ZM210,280c0-16.8,11.2-28,28-28H462c16.8,0,28,11.2,28,28V448c0,16.8-11.2,28-28,28H238c-16.8,0-28-11.2-28-28Z" transform="translate(-154 -28)" fill-rule="evenodd"/>
</svg>