<?xml version="1.0" encoding="UTF-8"?>
<svg id="Layer_2" data-name="Layer 2" xmlns="http://www.w3.org/2000/svg" viewBox="0 0 59.99 60">
  <defs>
    <style>
      .cls-1 {
        fill-rule: evenodd;
      }
    </style>
  </defs>
  <g id="Layer_1-2" data-name="Layer 1">
    <path class="cls-1" d="m42.91,45.74l13.68,13.67c.78.78,2.04.78,2.82,0,.78-.78.78-2.05,0-2.83l-13.67-13.67c3.9-4.55,6.26-10.46,6.26-16.91C52,11.65,40.35,0,26,0S0,11.65,0,26s11.65,26,26,26c6.46,0,12.37-2.36,16.91-6.26ZM26,4c12.14,0,22,9.86,22,22s-9.86,22-22,22S4,38.14,4,26,13.86,4,26,4Z"/>
  </g>
</svg>