<svg xmlns="http://www.w3.org/2000/svg" width="21.81" height="17.461" viewBox="0 0 21.81 17.461">
  <g id="sort" transform="translate(871.955 -98.871)">
    <g id="Group_74" data-name="Group 74" transform="translate(-871.955 98.871)">
      <path id="Path_69" data-name="Path 69" d="M-482.2,116.332c0-.06-.051-.049-.08-.058a1.235,1.235,0,0,1-.533-.337q-2.121-2.12-4.241-4.242a1.091,1.091,0,0,1,.253-1.789,1.123,1.123,0,0,1,1.33.278l2.259,2.257a.268.268,0,0,0,.137.1v-.169q0-6.132,0-12.264a1.172,1.172,0,0,1,.46-1.016,1.449,1.449,0,0,1,.422-.193l.071-.031a.488.488,0,0,0,.268,0l.05.03a.805.805,0,0,1,.693.337,1.137,1.137,0,0,1,.271.786q0,2.922,0,5.845,0,3.171,0,6.341a.4.4,0,0,0,.021.209c.068-.015.1-.071.144-.113q1.075-1.072,2.147-2.146a1.241,1.241,0,0,1,.973-.411,1.091,1.091,0,0,1,1.009.9.12.12,0,0,0,.025.065q0,.039,0,.078c-.036.047,0,.11-.031.158a.149.149,0,0,1,.03.106,1.431,1.431,0,0,1-.5.83q-2.03,2.023-4.055,4.052a1.11,1.11,0,0,1-.635.375c-.033,0-.065.017-.094-.007A3.88,3.88,0,0,1-482.2,116.332Z" transform="translate(498.333 -98.871)" fill="#773784"/>
      <path id="Path_70" data-name="Path 70" d="M-865.73,98.9a1.246,1.246,0,0,1,.644.363q2.115,2.116,4.232,4.231a1.124,1.124,0,0,1,.218,1.371,1.1,1.1,0,0,1-1.573.339,2.8,2.8,0,0,1-.266-.234q-1.105-1.1-2.208-2.206c-.036-.036-.073-.07-.119-.115a.351.351,0,0,0-.02.176q0,6.132,0,12.263a1.153,1.153,0,0,1-.6,1.107,1.343,1.343,0,0,1-.307.106c-.129.048-.265-.006-.4.028-.1-.048-.213-.033-.311-.088a1.11,1.11,0,0,1-.619-1.025q0-3.661,0-7.321,0-2.455,0-4.909a.72.72,0,0,0-.014-.206c-.07.014-.1.069-.144.109q-1.059,1.057-2.117,2.117a1.909,1.909,0,0,1-.363.294,1.134,1.134,0,0,1-1.61-.527.508.508,0,0,1-.042-.286v-.067a.284.284,0,0,1,0-.2v-.068a.559.559,0,0,1,.067-.337,1.764,1.764,0,0,1,.289-.384l4.18-4.179a1.086,1.086,0,0,1,.624-.364c.024,0,.046-.011.066.008l.045-.031a.488.488,0,0,0,.268,0Z" transform="translate(871.38 -98.871)" fill="#773784"/>
      <path id="Path_71" data-name="Path 71" d="M-684.854,98.872a.242.242,0,0,1-.268,0Z" transform="translate(690.428 -98.871)" fill="#773784"/>
      <path id="Path_72" data-name="Path 72" d="M-300.944,98.872a.24.24,0,0,1-.268,0Z" transform="translate(317.42 -98.871)" fill="#773784"/>
      <path id="Path_73" data-name="Path 73" d="M-871.921,287.42q0,.1,0,.2A.157.157,0,0,1-871.921,287.42Z" transform="translate(871.955 -282.066)" fill="#773784"/>
      <path id="Path_74" data-name="Path 74" d="M-105.3,518.724c.011-.052-.042-.118.031-.158C-105.283,518.619-105.255,518.679-105.3,518.724Z" transform="translate(127.083 -506.648)" fill="#773784"/>
    </g>
  </g>
</svg>
