<?xml version="1.0" encoding="UTF-8"?>
<svg id="Layer_2" data-name="Layer 2" xmlns="http://www.w3.org/2000/svg" viewBox="0 0 63.6 92.9">
  <g id="Layer_1-2" data-name="Layer 1">
    <g>
      <path d="m31.8,22.4c-10.7,0-19.5,8.7-19.5,19.5s8.8,19.5,19.5,19.5,19.5-8.7,19.5-19.5-8.8-19.5-19.5-19.5Zm0,36c-9.1,0-16.5-7.4-16.5-16.5s7.4-16.5,16.5-16.5,16.5,7.4,16.5,16.5-7.4,16.5-16.5,16.5Z"/>
      <path d="m23.8,31.8c-.6-.6-1.5-.6-2.1,0s-.6,1.5,0,2.1l2.8,2.8c.3.3.7.4,1.1.4s.8-.1,1.1-.4c.6-.6.6-1.5,0-2.1l-2.9-2.8Z"/>
      <path d="m39.1,47.1c-.6-.6-1.5-.6-2.1,0s-.6,1.5,0,2.1l2.8,2.8c.3.3.7.4,1.1.4s.8-.1,1.1-.4c.6-.6.6-1.5,0-2.1l-2.9-2.8Z"/>
      <path d="m24.5,47.1l-2.8,2.8c-.6.6-.6,1.5,0,2.1.3.3.7.4,1.1.4s.8-.1,1.1-.4l2.8-2.8c.6-.6.6-1.5,0-2.1-.7-.6-1.7-.6-2.2,0Z"/>
      <path d="m38.1,37.1c.4,0,.8-.1,1.1-.4l2.8-2.8c.6-.6.6-1.5,0-2.1s-1.5-.6-2.1,0l-2.8,2.8c-.6.6-.6,1.5,0,2.1.2.2.6.4,1,.4Z"/>
      <path d="m24.4,41.9c0-.8-.7-1.5-1.5-1.5h-3.9c-.8,0-1.5.7-1.5,1.5s.7,1.5,1.5,1.5h3.9c.9,0,1.5-.7,1.5-1.5Z"/>
      <path d="m39.2,41.9c0,.8.7,1.5,1.5,1.5h3.9c.8,0,1.5-.7,1.5-1.5s-.7-1.5-1.5-1.5h-3.9c-.9,0-1.5.6-1.5,1.5Z"/>
      <path d="m31.8,49.2c-.8,0-1.5.7-1.5,1.5v3.9c0,.8.7,1.5,1.5,1.5s1.5-.7,1.5-1.5v-3.9c0-.8-.7-1.5-1.5-1.5Z"/>
      <path d="m37.8,41.9c0-.8-.7-1.5-1.5-1.5h-3v-11.3c0-.8-.7-1.5-1.5-1.5s-1.5.7-1.5,1.5v12.8c0,.8.7,1.5,1.5,1.5h4.5c.8,0,1.5-.7,1.5-1.5Z"/>
      <path d="m46.6,75.1h-29.6c-.8,0-1.5.7-1.5,1.5s.7,1.5,1.5,1.5h29.7c.8,0,1.5-.7,1.5-1.5s-.7-1.5-1.6-1.5Z"/>
      <path d="m46.6,67.2h-29.6c-.8,0-1.5.7-1.5,1.5s.7,1.5,1.5,1.5h29.7c.8,0,1.5-.7,1.5-1.5s-.7-1.5-1.6-1.5Z"/>
      <path d="m62.1,9.6h-12.2c-.8-2.7-3.3-4.6-6.2-4.6h-5.2c-.9-2.9-3.6-5-6.7-5s-5.8,2.1-6.7,5h-5.2c-2.9,0-5.4,1.9-6.2,4.6H1.5c-.8,0-1.5.7-1.5,1.5v80.3c0,.8.7,1.5,1.5,1.5h60.6c.8,0,1.5-.7,1.5-1.5V11.1c0-.9-.7-1.5-1.5-1.5Zm-42.2-1.7h6.4c.8,0,1.4-.6,1.5-1.4.2-2,1.9-3.6,4-3.6s3.8,1.6,4,3.6c.1.8.7,1.4,1.5,1.4h6.4c1.8,0,3.3,1.4,3.4,3.2v1.4h-30.6v-1.4c.1-1.7,1.6-3.2,3.4-3.2Zm40.7,82H3V12.6h10.4v1.5c0,.8.7,1.5,1.5,1.5h33.7c.8,0,1.5-.7,1.5-1.5v-1.5h10.4v77.3h.1Z"/>
    </g>
  </g>
</svg>