<svg xmlns="http://www.w3.org/2000/svg" xmlns:xlink="http://www.w3.org/1999/xlink" width="333" height="333" viewBox="0 0 333 333">
  <defs>
    <clipPath id="clip-path">
      <rect id="Rectangle_26" data-name="Rectangle 26" width="333" height="333" transform="translate(848 -573)" fill="#773784" stroke="#707070" stroke-width="1"/>
    </clipPath>
  </defs>
  <g id="undraw_profile" transform="translate(-848 573)" clip-path="url(#clip-path)">
    <g id="Group_75" data-name="Group 75" transform="translate(0 -11)">
      <g id="Rectangle_25" data-name="Rectangle 25" transform="translate(848 -562)" fill="#773784" stroke="#707070" stroke-width="1">
        <rect width="333" height="333" stroke="none"/>
        <rect x="0.5" y="0.5" width="332" height="332" fill="none"/>
      </g>
      <g id="undraw_male_avatar_re_nyu5" transform="translate(811.918 -605.873)">
        <circle id="Ellipse_4" data-name="Ellipse 4" cx="74.332" cy="74.332" r="74.332" transform="translate(130.306 112.192)" fill="#ffb6b6"/>
        <path id="Path_75" data-name="Path 75" d="M218.824,352.537l-3.358-33.946,67.059-12.539,39.6,96.413-68.866,79.2L204.19,385.248Z" transform="translate(-56.857 -80.689)" fill="#ffb6b6"/>
        <path id="Path_76" data-name="Path 76" d="M210.114,313.752l14.661,3.312s-11.525-36.546-7.613-40.035,13.5,2.009,13.5,2.009l10.073,11.294L253,277.84s13.321-16.564,18.537-21.216-3.162-21.92-3.162-21.92,77.381-20.866,48.588-58.4c0,0-16.882-29.427-22.379-19.841s-12.053-5.639-12.053-5.639l-20.017,3.807s-39.507-23.294-77,26.539,24.6,132.581,24.6,132.581h0Z" transform="translate(-52.583 -58.859)" fill="#2f2e41"/>
        <path id="Path_77" data-name="Path 77" d="M388.377,459.093a229.17,229.17,0,0,1-277,8.238c.069-.723.138-1.438.2-2.152,1.024-11.191,1.937-22.072,2.539-31.093,2.333-35.027,84.051-58.373,84.051-58.373s.37.37,1.111,1.016c4.511,3.96,22.821,18.318,54.929,22.33,28.631,3.581,38.057-13.4,40.907-21.538a26.373,26.373,0,0,0,1.119-4.141l84.051,39.693c5.483,7.834,7.627,24.706,8.049,43.67.017.783.034,1.558.043,2.35Z" transform="translate(-43.941 -90.06)" fill="#fff"/>
      </g>
    </g>
  </g>
</svg>
