 <svg xmlns="http://www.w3.org/2000/svg" class="side-icon" viewBox="0 0 496.731 386.057">
                <g id="employees" transform="translate(-6964.675 -1081)">
                  <path id="Path_128" data-name="Path 128" d="M369.91,349.34c6.07-4.156,13.4-6.781,20.07-9.734,10.172-4.539,20.4-9.023,30.57-13.562,4.211-1.859,8.367-3.719,12.578-5.578,1.859-.82,3.938-1.531,5.688-2.516.055-.055-15.422-4.047-15.422-4.1.055.055.109.109.109.164a12.012,12.012,0,0,0,.766.984c.984,1.258,1.914,2.516,2.9,3.773,3.117,4.047,6.234,8.148,9.352,12.2q8.2,10.746,16.406,21.438c2.734,3.555,5.414,5.906,10.008,6.508,3.883.492,8.914-.437,11.484-3.773C483,344.091,491.534,333.044,500.12,322c1.367-1.75,2.789-3.391,4.047-5.2,2.844-4.156-17.336-1.039-12.906,1.148.547.273,1.148.492,1.7.766,6.016,2.68,12.086,5.359,18.1,8.094,13.617,6.07,27.289,12.141,40.906,18.211.6.273,1.2.547,1.75.82a34.523,34.523,0,0,1,4.156,2.3c.656.438,1.313.82,1.969,1.313,2.406,1.7-1.641-1.477,0,0,1.258,1.148,2.516,2.188,3.664,3.445.547.547,1.039,1.148,1.531,1.7,1.914,2.242-1.258-1.859,0-.055.875,1.258,1.7,2.516,2.461,3.883.438.766.875,1.586,1.258,2.406,1.313,2.68-.766-2.187,0-.109a41.739,41.739,0,0,1,1.422,4.43c.219.766.383,1.531.547,2.242.273,1.258.219,4.375.109.219.055,1.7.273,3.336.273,5.031v53.539c0,7.164,6.289,14,13.672,13.672s13.672-6.016,13.672-13.672V382.645c0-7.492.164-14.766-1.312-22.2a55.73,55.73,0,0,0-28.82-37.9c-12.469-6.289-25.594-11.43-38.281-17.117-7.109-3.172-14.164-6.344-21.273-9.461-1.258-.547-2.516-1.148-3.773-1.7-6.672-2.9-14.547-2.844-19.8,2.953-.383.438-.711.93-1.094,1.367-9.352,12.086-18.7,24.117-28.109,36.2a12.012,12.012,0,0,0-.766.984l21.492,2.789c-9.844-12.852-19.633-25.758-29.531-38.609-3.391-4.43-7.711-7.82-13.617-7.82a20.629,20.629,0,0,0-8.422,2.133c-.711.328-1.422.6-2.133.93-3.5,1.531-6.945,3.063-10.445,4.648-10.5,4.648-20.945,9.3-31.445,13.945-8.258,3.664-17.445,6.781-24.938,11.922-5.906,4.047-9.078,12.2-4.922,18.7,3.719,5.852,12.359,9.242,18.648,4.922Z" transform="translate(6862.953 993.937)"/>
                  <path id="Path_129" data-name="Path 129" d="M508.92,217.05c-.109,2.68,1.039-3.281.109-.656-.055.273-.164.492-.219.766-.492,1.367-.273,1.039.547-.984a37.632,37.632,0,0,0-2.078,3.664c-.219-.383,2.078-2.461.328-.437-.437.492-.984.984-1.422,1.477-1.859,2.023,2.68-1.531.383-.219a19.458,19.458,0,0,0-3.992,2.844c-2.078,2.078-2.789,4.211-3.828,6.836-.109.273-1.148,3.008-.328.766.875-2.187-.219.438-.328.766-.328.766-.711,1.586-1.094,2.352-1.312,2.789-2.789,5.469-4.375,8.148-1.531,2.516-3.5,4.813-4.977,7.383.109-.164,2.133-2.57.656-.93l-1.477,1.8c-.984,1.148-2.023,2.242-3.117,3.336-.875.875-1.8,1.7-2.734,2.516-.547.492-1.148.93-1.7,1.422,2.68-2.516,1.641-1.2.711-.6-2.3,1.531-4.758,2.625-7.055,4.047,2.953-1.8,2.188-.875.984-.437-.547.164-1.094.383-1.641.6a34.379,34.379,0,0,1-3.391.93c-.656.164-1.422.219-2.078.383,3.719-1.094,2.188-.273.82-.164a37.99,37.99,0,0,1-4.32.109c-.6,0-1.2-.109-1.8-.109-1.312-.055-2.352-.82,1.148.164-1.094-.328-2.3-.437-3.445-.711a34.072,34.072,0,0,1-3.992-1.312c-1.039-.383-1.422-1.148,1.313.547-.766-.492-1.7-.82-2.516-1.258a34.541,34.541,0,0,1-3.062-1.8c-1.094-.711-3.883-3.281-.766-.383-2.187-2.078-4.484-3.883-6.562-6.125-.875-.93-1.7-1.969-2.516-2.9-1.8-2.078,1.531,2.133.438.6-.383-.547-.766-1.039-1.2-1.586a92.257,92.257,0,0,1-5.031-7.93c-.875-1.586-1.75-3.227-2.516-4.867-.6-1.258-1.148-3.773-2.133-4.7,1.094,1.039.93,2.352.383.875-1.094-2.789-1.969-5.469-4.156-7.656a17.63,17.63,0,0,0-3.664-2.68c-2.625-1.75,1.8,1.969.055.055-.547-.6-1.148-1.2-1.7-1.75-1.75-1.859,1.422,2.461.109.055-.383-.711-.82-1.477-1.258-2.187-1.312-2.3.656,2.734.164.219-.055-.273-.164-.492-.219-.766-.273-1.477-.273-.984.109,1.367a8.223,8.223,0,0,1,0-1.641c-.109.656-.219,1.313-.273,1.969.055-.273.109-.492.164-.766.438-1.422.219-.984-.656,1.258.711-1.2.383-.82-1.039,1.148.984-.984.492-.656-1.367.875,5.359-4.047,7.438-8.8,6.289-15.422-.219-1.422-.492-2.789-.711-4.211-.109-.766-.656-2.461.055.492a14.136,14.136,0,0,1-.219-2.078c-.273-2.789-.492-5.578-.6-8.367a106.229,106.229,0,0,1,.219-13.836c.109-.984.164-1.969.273-2.953.273-2.352-.6,3.609-.055.438.328-1.914.656-3.773,1.148-5.633.383-1.531.82-3.062,1.313-4.539.219-.656.492-1.312.711-2.023.656-1.859-.6,1.641-.711,1.641a13.941,13.941,0,0,0,.711-1.586c.547-1.2,1.2-2.352,1.859-3.5a21.648,21.648,0,0,1,1.2-1.859c.328-.547,2.242-3.008.547-.82-1.7,2.242.055-.055.492-.492.383-.437.82-.93,1.258-1.367a43.569,43.569,0,0,1,3.336-3.008c.6-.547-3.062,2.188-.875.711.6-.383,1.148-.82,1.75-1.148,1.313-.82,2.625-1.531,3.992-2.242.547-.273,1.148-.547,1.75-.82-4.211,2.078-1.859.766-.711.328,1.422-.547,2.9-.984,4.375-1.422a44.177,44.177,0,0,1,4.648-1.094c.711-.164,1.422-.273,2.133-.383a9.272,9.272,0,0,0,1.2-.219c2.352-.383-1.039,0-1.477.164,1.422-.6,3.664-.383,5.2-.492,1.8-.109,3.609-.219,5.414-.273a106.433,106.433,0,0,1,11.047.273c1.641.109,3.227.273,4.867.492,1.641.164-3.391-.492-1.75-.219a10.094,10.094,0,0,1,1.258.219c.93.164,1.8.328,2.734.492a60.277,60.277,0,0,1,8.7,2.406c.547.219,3.336,1.313.711.219-2.516-1.039-.219-.055.383.219a35.2,35.2,0,0,1,3.992,2.188c.6.383,1.2.766,1.75,1.148a4.562,4.562,0,0,0,.656.438c1.641,1.039-1.641-1.258-1.531-1.2a15.579,15.579,0,0,1,3.336,2.953c.93.93,1.75,2.023,2.68,2.953-3.062-3.227-1.258-1.7-.547-.6.492.656.93,1.367,1.367,2.078a39.521,39.521,0,0,1,2.242,4.266c1.367,2.953-1.039-2.844-.109-.273.328.875.656,1.75.93,2.625A52.52,52.52,0,0,1,506.022,171c.219.984.383,2.023.6,3.008a11.844,11.844,0,0,0,.219,1.367c.328,1.531-.437-3.828-.164-1.148a120.331,120.331,0,0,1,.6,14.711c-.055,2.953-.273,5.906-.547,8.859-.055.711-.164,1.422-.219,2.078-.055.547-.109,1.039-.164,1.586.055-.492.164-1.039.219-1.531.219,1.422-.6,3.883-.82,5.25-1.2,6.727.984,11.43,6.289,15.422-.219-.164-2.57-2.187-1.367-.875-.437-.6-.93-1.148-1.367-1.75.492.93.438.766-.109-.383-.93-2.078-.328-.383-.109.109.492,1.313-.219-3.609-.164-.656.164,7.164,6.125,14,13.672,13.672,7.219-.328,13.891-6.016,13.672-13.672a26.631,26.631,0,0,0-2.844-11.977c-1.859-3.5-4.43-5.742-7.547-8.094,2.078,5.141,4.211,10.281,6.289,15.422,3.664-21,4.375-43.477-4.758-63.219-6.617-14.383-20.016-24.117-34.945-28.492-15.914-4.648-34.125-4.539-50.312-1.258-15.422,3.117-29.367,11.7-37.68,25.266-12.2,19.852-10.992,45.773-7.164,67.758,2.078-5.141,4.211-10.281,6.289-15.422-4.484,3.391-7.82,7.164-9.406,12.742a27.094,27.094,0,0,0,.109,14.766c2.461,8.313,8.422,16.3,16.078,20.508-2.078-2.734-4.211-5.469-6.289-8.148C412.4,258.121,425.523,278.41,447.616,287c20.617,8.039,43.367-.383,57.7-16.188,9.023-9.953,15.148-21.547,20.016-33.961-2.078,2.734-4.211,5.469-6.289,8.148A34.387,34.387,0,0,0,536.21,217.1c.219-7.164-6.453-14-13.672-13.672a13.871,13.871,0,0,0-13.617,13.617Z" transform="translate(6862.953 993.937)"/>
                  <path id="Path_130" data-name="Path 130" d="M420.88,205.24a73.412,73.412,0,0,1,4.32-8.531c.93-1.531,1.859-3.062,2.9-4.539.547-.766,1.148-1.477,1.641-2.242-.164.328-2.023,2.461-.82,1.094.383-.437.766-.93,1.148-1.367a49.047,49.047,0,0,1,4.047-4.211c.711-.656,1.477-1.312,2.242-1.969,1.258-1.094-2.352,1.7-.984.766.438-.273.82-.6,1.2-.875a39.288,39.288,0,0,1,5.3-3.062c.438-.219,2.188-.984.164-.109s-.219.109.219-.055a25.744,25.744,0,0,1,3.5-1.039c-5.141-2.078-10.281-4.211-15.422-6.289,12.2,16.844,34.07,26.086,53.977,29.312a150.81,150.81,0,0,0,36.805,1.422c7.109-.6,14-5.852,13.672-13.672-.328-6.891-6.016-14.328-13.672-13.672-5.2.438-10.336.656-15.531.6-4.594-.055-9.078-.656-13.617-.93,4.43.273,1.148.164,0-.055-1.039-.164-2.078-.328-3.172-.547-1.859-.383-3.773-.766-5.633-1.2a89.985,89.985,0,0,1-9.9-3.062c-.766-.273-1.586-.6-2.352-.93-2.625-1.039,3.281,1.477.82.328-1.312-.6-2.625-1.2-3.883-1.859q-3.363-1.723-6.562-3.773c-.93-.6-1.8-1.2-2.734-1.859-.383-.273-.766-.6-1.148-.875.109.055,3.336,2.625,1.2.875-1.2-.984-2.406-2.023-3.555-3.117-.82-.82-1.641-1.641-2.406-2.516-1.914-2.187,1.8,2.406,1.313,1.7-3.609-5.031-9.133-7.93-15.422-6.289-19.25,5.086-33.359,21.055-41.125,38.773-1.531,3.5-2.406,6.727-1.367,10.555a13.835,13.835,0,0,0,6.289,8.148c5.742,3.117,15.477,2.078,18.539-4.922Z" transform="translate(6862.953 993.937)"/>
                  <path id="Path_131" data-name="Path 131" d="M424.65,459.27V405.95c0-8.8.273-17.445-1.367-26.141-3.5-19.141-16.9-36.75-34.234-45.445-5.25-2.625-10.773-4.867-16.133-7.273-10.281-4.594-20.617-9.187-30.9-13.781-8.75-3.883-17.445-7.766-26.2-11.648-1.586-.711-3.172-1.422-4.812-2.133-4.047-1.75-7.93-2.844-12.359-1.641a17.155,17.155,0,0,0-8.258,4.813c-.492.547-.875,1.148-1.312,1.7l-34.617,44.625c-.328.438-.656.82-.984,1.258l21.492,2.789Q258.812,331.9,242.6,310.74c-1.312-1.75-2.68-3.5-3.992-5.2-2.789-3.664-5.8-6.289-10.336-7.547-4.43-1.2-8.367-.109-12.359,1.641-.492.219-.984.438-1.422.656-7.273,3.227-14.6,6.453-21.875,9.68q-26.087,11.566-52.117,23.133a65.156,65.156,0,0,0-32.32,31.719,68.739,68.739,0,0,0-6.453,28.328v66.281c0,7.164,6.289,14,13.672,13.672s13.672-6.016,13.672-13.672V393.155c0-1.094.055-2.133.109-3.227.055-.547.055-1.039.109-1.586s.328-2.953.055-.547c-.328,2.406.164-.656.273-1.312.219-1.039.438-2.023.711-3.062a53.389,53.389,0,0,1,1.969-5.906c.82-2.078-.383.984-.492,1.094a11.275,11.275,0,0,0,.656-1.422c.438-.93.93-1.859,1.422-2.734.984-1.8,2.188-3.5,3.336-5.2,1.258-1.8-.547.766-.711.93a10.484,10.484,0,0,0,.984-1.2c.656-.766,1.367-1.586,2.078-2.3a55.817,55.817,0,0,1,4.539-4.266c.875-.711,1.586-.6-.93.656a10.675,10.675,0,0,0,1.258-.93c.766-.547,1.531-1.039,2.3-1.531a48.14,48.14,0,0,1,5.961-3.227c14.6-6.781,29.422-13.07,44.133-19.578q13.289-5.906,26.578-11.758c2.023-.875,4.156-1.641,6.07-2.68l.328-.164-8.367,1.2c-71.914-9.406-7.875-7.219-6.344-5.086a.755.755,0,0,1,.164.219c.547.766,1.148,1.477,1.7,2.188q16.816,21.984,33.578,43.914c.328.438.656.82.984,1.258,2.734,3.555,5.414,5.906,10.008,6.508,3.883.492,8.914-.437,11.484-3.773q15.914-20.508,31.773-40.961c1.531-1.969,3.828-4.156,4.977-6.4.328-.711,3.063-1.8-1.914.93-3.609,2.023-4.977,2.734-10.445,0,.055.055.164.055.219.109.656.328,1.313.6,1.969.875L322.059,334.2c16.789,7.492,33.578,14.93,50.367,22.477.766.328,1.531.656,2.3,1.039a49.508,49.508,0,0,1,5.523,3.117c.766.492,1.531,1.039,2.3,1.531.438.328,1.914,1.367.164.109-1.859-1.367.055.055.438.383a49.047,49.047,0,0,1,4.211,4.047c.711.766,1.367,1.531,2.023,2.3.219.273.492.6.711.875-2.625-2.9-.875-1.094-.273-.273a56.854,56.854,0,0,1,3.063,4.922c.438.766.875,1.586,1.258,2.406a8.247,8.247,0,0,0,.656,1.422c-.82-1.969-1.039-2.461-.6-1.477.164.383.273.711.438,1.094a47.23,47.23,0,0,1,1.75,5.578c.219.875.438,1.75.6,2.68.109.492.164,1.039.273,1.531.547,2.734-.219-2.57-.109-.875.164,2.133.328,4.266.328,6.4v65.953c0,7.164,6.289,14,13.672,13.672,7.219-.547,13.508-6.18,13.508-13.836Z" transform="translate(6862.953 993.937)"/>
                  <path id="Path_132" data-name="Path 132" d="M276.83,459.27V359.848c0-7.164-6.289-14-13.672-13.672s-13.672,6.016-13.672,13.672V459.27c0,7.164,6.289,14,13.672,13.672C270.541,472.559,276.83,466.926,276.83,459.27Z" transform="translate(6862.953 993.937)"/>
                  <path id="Path_133" data-name="Path 133" d="M337.2,255.77H288.911c2.3,8.477,4.594,17.008,6.891,25.484,17.062-12.469,27.781-30.188,35.383-49.6-2.078,2.734-4.211,5.469-6.289,8.148,8.367-4.594,14.711-13.18,17.555-22.148a29.481,29.481,0,0,0,.383-15.859c-1.477-6.07-5.2-10.336-10.062-14,2.078,5.141,4.211,10.281,6.289,15.422a194.283,194.283,0,0,0,2.844-25.758c.273-6.945-6.508-14.273-13.672-13.672a200.123,200.123,0,0,1-34.344-.437c4.7.383.383.055-.711-.164-1.039-.164-2.078-.383-3.172-.547-2.352-.437-4.648-.93-6.945-1.531a110.131,110.131,0,0,1-11.648-3.609c-.766-.273-1.531-.6-2.352-.93-2.57-.984,3.336,1.477.547.219-1.586-.711-3.227-1.477-4.812-2.3a87.112,87.112,0,0,1-7.547-4.375c-1.094-.711-2.133-1.422-3.172-2.187-.492-.328-.93-.82-1.422-1.094-.328-.164,3.172,2.57,1.969,1.531-.273-.219-.492-.383-.766-.6-1.422-1.148-2.844-2.406-4.211-3.719a35.61,35.61,0,0,1-2.789-2.953c-.219-.273-.492-.6-.711-.875-.984-1.094,2.789,3.719,1.859,2.406-3.609-5.031-9.133-7.93-15.422-6.289-14.93,3.938-26.742,13.617-35.875,25.7a88.477,88.477,0,0,0-8.422,13.508c-1.914,3.773-4.32,8.094-4.1,12.3a132.149,132.149,0,0,0,2.133,15.312c2.078-5.141,4.211-10.281,6.289-15.422-4.812,3.609-8.312,7.656-9.953,13.617a29.8,29.8,0,0,0,.273,16.242c2.9,9.023,9.188,17.555,17.609,22.148-2.078-2.734-4.211-5.469-6.289-8.148,7.6,19.414,18.32,37.133,35.383,49.6,2.3-8.477,4.594-17.008,6.891-25.484H200.974c-4.1,0-8.258.109-12.359,0-1.8-.055-1.258-.82,1.039.219a13.54,13.54,0,0,0-2.133-.547c-1.969-.437.984.383,1.258.6a12.405,12.405,0,0,0-1.859-1.039c-2.3-1.2,2.352,2.3.492.438-.328-.328-.711-.656-1.039-.984l-.492-.492c-.875-1.094-.6-.711.82,1.094a10.6,10.6,0,0,0-1.094-1.8c-1.367-2.187.875,3.172.273.656-.109-.437-.711-1.641-.547-2.078.055-.055.164,3.828.219,1.477a10.245,10.245,0,0,0,0-2.242c.328,1.094-.492,3.063-.219,1.477,2.133-12.633,4.1-25.266,6.18-37.9.875-5.25,1.7-10.5,2.57-15.75.656-4.047,1.258-8.094,1.75-12.195.93-7.219,2.188-14.711,2.352-21.93-.109,4.43.055,0,.273-1.2.273-1.422.547-2.844.875-4.266a84.205,84.205,0,0,1,2.406-8.258c.383-1.148.875-2.242,1.313-3.336-1.531,4.32-.164.492.328-.547a63.409,63.409,0,0,1,3.992-7.055c.6-.93,1.2-1.8,1.859-2.734,2.078-2.844-1.969,2.352.219-.328a62.694,62.694,0,0,1,5.2-5.578c1.531-1.422,3.117-2.734,4.7-4.1-3.555,3.117-.766.6.219-.109,1.094-.766,2.188-1.531,3.336-2.242,1.8-1.148,3.719-2.187,5.633-3.172.93-.437,1.8-.93,2.734-1.312.547-.273,1.148-.492,1.7-.766-4.1,1.914-1.969.82-.984.438a86.537,86.537,0,0,1,12.8-3.937c2.133-.492,4.32-.93,6.508-1.258,3.336-.492-3.5.383-.055,0,1.2-.164,2.352-.273,3.555-.328a101.11,101.11,0,0,1,13.508-.219c2.188.109,4.375.219,6.508.438,1.258.109,6.016.93.875.055,1.258.219,2.57.383,3.828.6a88.453,88.453,0,0,1,13.453,3.5c.984.328,1.969.711,2.9,1.094,3.172,1.258-3.008-1.367.164.055,2.078.93,4.047,1.969,6.016,3.063a62.212,62.212,0,0,1,5.688,3.609c.438.273.82.6,1.258.93,1.367.984-2.9-2.352-1.094-.82.93.766,1.914,1.586,2.789,2.406a57.013,57.013,0,0,1,4.758,4.867c.711.82,1.313,1.641,2.023,2.406-3.172-3.719-.164-.109.492.875a72.078,72.078,0,0,1,3.719,6.234,31.532,31.532,0,0,1,1.477,3.063c.164.438,1.148,2.625.164.273-1.039-2.461.164.492.328.984a82.265,82.265,0,0,1,4.156,16.133c.055.383.492,3.117.109.6s0,.273.055.656c.164,1.477.273,3.008.383,4.484.328,4.266.766,8.531,1.313,12.742,1.8,14.492,4.32,28.93,6.672,43.367,1.148,7,2.3,14,3.445,21.055.273,1.8.6,3.609.875,5.414.273,1.531-.492-.6-.219-1.586a10.242,10.242,0,0,0,0,2.242c.055,2.352.219-1.531.219-1.477.164.438-.437,1.641-.547,2.078-.547,2.352,1.8-2.9.109-.328a10.975,10.975,0,0,0-.93,1.477l1.313-1.641a8.408,8.408,0,0,1-.93,1.039c-.328.328-.656.656-1.039.984-1.8,1.8,2.789-1.641.492-.437a10.185,10.185,0,0,0-1.859,1.039c.273-.219,3.227-1.039,1.258-.6a9.4,9.4,0,0,0-2.133.547c.711-.109,1.422-.219,2.133-.273a2.275,2.275,0,0,1-1.312.219c-7.164.164-14,6.18-13.672,13.672.328,7.273,6.016,13.836,13.672,13.672,18.156-.383,32.812-16.188,30.352-34.508-.656-4.7-1.477-9.406-2.242-14.055-2.187-13.562-4.43-27.125-6.617-40.688a4.221,4.221,0,0,1-.109-.82c-.273-1.75-.547-3.5-.82-5.3-.164-1.039-.328-2.133-.437-3.172-.219-1.586-.219-1.422.055.438-.109-.711-.164-1.422-.273-2.133-1.039-8.312-1.477-16.68-2.68-24.992a83.758,83.758,0,0,0-12.359-33.523c-12.3-18.7-32.1-30.625-53.922-34.836-20.4-3.937-42.547-3.5-62.125,3.938a90.789,90.789,0,0,0-29.148,17.391C187.85,119,181.4,129.279,176.858,140.49c-5.359,13.18-5.906,27.125-7.492,41.07-.109,1.039-.273,2.078-.383,3.117-.437,3.555.438-3.008-.055.547-.273,1.75-.492,3.445-.766,5.2-.055.328-.109.656-.164.93-.328,2.078-.656,4.156-1.039,6.289-2.352,14.547-4.7,29.039-7.109,43.586-.273,1.531-.492,3.063-.766,4.594-1.2,7.547-.547,14.438,3.063,21.273,5.633,10.828,17.172,15.969,28.93,15.969h45.61c5.8,0,11.867-4.211,13.18-10.062,1.477-6.344-1.148-11.7-6.289-15.422-2.187-1.586,2.188,1.859.273.219-.6-.492-1.2-1.039-1.8-1.531-1.2-1.094-2.406-2.187-3.555-3.336-1.148-1.2-2.3-2.406-3.391-3.664l-1.641-1.969c-1.914-2.352,1.859,2.516.055.055a112.406,112.406,0,0,1-10.828-18.539c-.383-.82-.766-1.7-1.148-2.57-1.148-2.516.984,2.625-.055-.219-1.75-4.594-3.391-7.547-7.547-10.281a3.678,3.678,0,0,1-.6-.383c-1.148-.766-.82-.492.984.875a22.516,22.516,0,0,0-1.7-1.531c-.547-.547-1.094-1.148-1.641-1.75-1.7-1.859,1.531,2.516.164.164-.383-.711-.875-1.367-1.258-2.078-.109-.219-.273-.492-.383-.711-.6-1.312-.492-.984.383,1.094a8.182,8.182,0,0,0-.6-1.859c-.164-.547-.656-3.336-.219-.766.383,2.57.219-.383.219-.984,0-1.641-.492,3.5.109.438.273-1.367-1.7,3.117-.219.711q.9-1.312-1.148,1.477c.984-.93.547-.656-1.312.875,5.359-3.992,7.438-8.859,6.289-15.422-.328-1.859-.6-3.719-.875-5.578-.328-1.969.383,3.445,0,.109-.109-1.039-.219-2.023-.328-3.062-.6,2.3-1.258,4.594-1.859,6.891a98.433,98.433,0,0,1,5.141-10.172q1.641-2.789,3.445-5.414c.6-.875,1.258-1.7,1.859-2.57-.437.711-2.023,2.461-.6.82.383-.437.766-.93,1.148-1.367,1.422-1.641,2.953-3.227,4.539-4.758.93-.875,1.859-1.641,2.789-2.461,1.367-1.2-.6.547-.984.766.547-.328,1.039-.766,1.531-1.094a48.3,48.3,0,0,1,6.289-3.664c.492-.219,2.68-1.2.492-.273-2.242.984.273-.055.6-.164,1.258-.437,2.57-.82,3.883-1.2-5.141-2.078-10.281-4.211-15.422-6.289,4.648,6.453,10.609,11.43,17.117,15.969,13.016,9.078,28.766,14.6,44.3,17.117a171.446,171.446,0,0,0,42.328,1.586L314.725,177.4c-.109,3.5-.383,7-.711,10.5-.055.711-.164,1.422-.219,2.133-.383,3.445.328-1.969,0,.055-.273,1.969-.6,3.883-.93,5.8-1.148,6.672.984,11.484,6.289,15.422-1.914-1.531-2.352-1.859-1.312-.875-.437-.6-.875-1.148-1.312-1.75a13.088,13.088,0,0,1,.711,1.148l-.82-1.969a14.659,14.659,0,0,1,.383,1.477c-.055-.656-.164-1.312-.219-1.969a13.15,13.15,0,0,0,.055,2.516c.383-2.406.438-2.9.219-1.477-.055.219-.109.492-.164.711-.164.766-.547,1.477-.711,2.242.711-3.117.711-1.586,0-.328-.383.711-.82,1.422-1.258,2.078-1.477,2.461,2.078-2.242.164-.164-.547.6-1.039,1.2-1.641,1.75-.547.547-1.148.984-1.7,1.531,2.461-2.406,1.477-1.2.383-.492a15.378,15.378,0,0,0-5.523,5.25,42.026,42.026,0,0,0-2.078,5.031c-1.2,3.063,1.258-2.789-.055.219-.383.875-.766,1.7-1.148,2.57A114.033,114.033,0,0,1,292.3,247.349c-1.531,2.133,1.859-2.242.055-.055l-1.641,1.969c-.984,1.148-2.023,2.3-3.062,3.391-1.148,1.148-2.3,2.3-3.5,3.391-.6.547-1.2,1.039-1.8,1.531-2.57,2.133,2.078-1.531-.055,0-4.758,3.5-8.258,9.3-6.289,15.422a14.1,14.1,0,0,0,13.18,10.062h48.289c7.164,0,14-6.289,13.672-13.672-.6-7.328-6.234-13.617-13.945-13.617Z" transform="translate(6862.953 993.937)"/>
                  <path id="Path_134" data-name="Path 134" d="M316.42,209.29c-.055,2.68.93-3.445.164-.766-.219.711-.437,1.477-.6,2.188-.711,2.68,1.586-2.789.109-.328-.437.711-.766,1.422-1.2,2.133-.273.438-.711.93-.93,1.367l1.148-1.477c-.328.438-.711.82-1.039,1.258-.547.6-1.094,1.148-1.641,1.7l-1.148.984c1.8-1.367,2.133-1.641.984-.875-3.773,1.969-5.906,4.922-7.492,8.859a13.812,13.812,0,0,1-1.039,2.625c1.859-2.9.328-.711-.109.164-1.477,3.336-3.117,6.672-4.922,9.844a91.234,91.234,0,0,1-5.2,8.258c-.492.711-1.039,1.422-1.531,2.133-1.75,2.516,1.969-2.406.055-.055-1.094,1.313-2.133,2.57-3.281,3.828a68.9,68.9,0,0,1-6.453,6.18c-.219.164-.383.328-.6.492-1.148.875-.82.656.875-.711-.656.164-1.586,1.148-2.133,1.531a40.888,40.888,0,0,1-4.7,2.789,16.42,16.42,0,0,1-2.406,1.2l1.641-.656c-.547.219-1.094.438-1.7.656a42.351,42.351,0,0,1-5.141,1.477c-.6.109-1.2.219-1.75.328-3.117.6,3.227-.164.055,0a50.9,50.9,0,0,1-6.453.055c-.328,0-.6-.055-.93-.055-1.2-.109-1.2-.109,0,.055a5.388,5.388,0,0,0,.93.109l-1.8-.328a42.709,42.709,0,0,1-5.2-1.367,10.462,10.462,0,0,1-2.516-.93c0-.055,2.68,1.313.82.273-1.859-.984-3.719-1.914-5.523-3.062-.766-.492-1.531-1.039-2.3-1.531-2.3-1.531,2.023,1.641.547.492-1.148-.93-2.242-1.859-3.336-2.844a70.584,70.584,0,0,1-6.781-7.219c-.164-.219-.383-.437-.547-.656-.875-1.148-.711-.875.547.766,0-.437-1.258-1.75-1.531-2.078l-2.461-3.609a105.779,105.779,0,0,1-5.359-9.352c-.984-1.914-1.914-3.883-2.789-5.852-.383-.93-1.969-3.062-.109-.164a15.421,15.421,0,0,1-1.039-2.625c-1.422-3.555-2.953-6.07-6.289-8.148a13.827,13.827,0,0,1-1.2-.711c-1.148-.766-.82-.492.984.875-.93-1.148-2.3-2.187-3.336-3.281-1.969-2.078,1.641,2.68.164.164-.547-.93-1.094-1.859-1.641-2.844-1.422-2.461.875,3.008.109.328-.219-.875-.492-1.7-.656-2.57-.383-1.641-.109,3.609.219,1.094,0-.6.055-1.2.109-1.8-.328,2.242-.383,2.625-.055,1.2.711-2.68-1.586,2.9-.273.656.766-1.148.438-.766-.984,1.2.984-.93.547-.656-1.312.875,5.359-3.992,7.438-8.859,6.289-15.422-.328-1.859-.6-3.719-.875-5.578-.328-1.969.383,3.445,0,.109-.109-1.039-.219-2.023-.328-3.062-.6,2.3-1.258,4.594-1.859,6.891a98.433,98.433,0,0,1,5.141-10.172q1.641-2.789,3.445-5.414c.6-.875,1.258-1.7,1.859-2.57-.437.711-2.023,2.461-.6.82.383-.437.766-.93,1.148-1.367,1.422-1.641,2.953-3.227,4.539-4.758.93-.875,1.859-1.641,2.789-2.461,1.367-1.2-.6.547-.984.766.547-.328,1.039-.766,1.531-1.094a48.3,48.3,0,0,1,6.289-3.664c.492-.219,2.68-1.2.492-.273-2.242.984.273-.055.6-.164,1.258-.437,2.57-.82,3.883-1.2-5.141-2.078-10.281-4.211-15.422-6.289,4.648,6.453,10.609,11.43,17.117,15.969,13.016,9.078,28.766,14.6,44.3,17.117a171.446,171.446,0,0,0,42.328,1.586l-13.672-13.672c-.109,3.5-.383,7-.711,10.5-.055.711-.164,1.422-.219,2.133-.383,3.445.328-1.969,0,.055-.273,1.969-.6,3.883-.93,5.8-1.148,6.672.984,11.484,6.289,15.422-1.8-1.477-2.352-1.859-1.586-1.148.711.766.383.219-1.094-1.531.164.438,1.2,2.461.273.164-1.094-2.625-.055.438,0,.492-.055-.656-.164-1.312-.219-1.969a6.143,6.143,0,0,1,.164,1.75c.164,7.164,6.18,14,13.672,13.672,7.273-.328,13.836-6.016,13.672-13.672a29.176,29.176,0,0,0-3.008-12.852c-1.914-3.719-4.7-6.18-7.984-8.641,2.078,5.141,4.211,10.281,6.289,15.422a194.283,194.283,0,0,0,2.844-25.758c.273-6.945-6.508-14.273-13.672-13.672a200.123,200.123,0,0,1-34.344-.437c4.7.383.383.055-.711-.164-1.039-.164-2.078-.383-3.172-.547-2.352-.437-4.648-.93-6.945-1.531a110.131,110.131,0,0,1-11.648-3.609c-.766-.273-1.531-.6-2.352-.93-2.57-.984,3.336,1.477.547.219-1.586-.711-3.227-1.477-4.812-2.3a87.112,87.112,0,0,1-7.547-4.375c-1.094-.711-2.133-1.422-3.172-2.187-.492-.328-.93-.82-1.422-1.094-.328-.164,3.172,2.57,1.969,1.531-.273-.219-.492-.383-.766-.6-1.422-1.148-2.844-2.406-4.211-3.719a35.61,35.61,0,0,1-2.789-2.953c-.219-.273-.492-.6-.711-.875-.984-1.094,2.789,3.719,1.859,2.406-3.609-5.031-9.133-7.93-15.422-6.289-14.93,3.938-26.742,13.617-35.875,25.7a88.477,88.477,0,0,0-8.422,13.508c-1.914,3.773-4.32,8.094-4.1,12.3a132.149,132.149,0,0,0,2.133,15.312c2.078-5.141,4.211-10.281,6.289-15.422-4.812,3.609-8.312,7.656-9.953,13.617a29.8,29.8,0,0,0,.273,16.242c2.9,9.023,9.188,17.555,17.609,22.148-2.078-2.734-4.211-5.469-6.289-8.148,8.586,21.984,22.312,45.008,44.844,54.961,12.742,5.633,27.234,7.164,40.633,2.625A69.034,69.034,0,0,0,309.8,268.569c9.461-11.047,16.078-23.516,21.383-37.023-2.078,2.734-4.211,5.469-6.289,8.148,10.719-5.906,18.539-18.32,18.867-30.516.219-7.164-6.453-14-13.672-13.672a14.141,14.141,0,0,0-13.672,13.781Z" transform="translate(6862.953 993.937)"/>
                </g>
              </svg>